HIERARCHY
ROOT hip
{
  OFFSET 0 0 0
  CHANNELS 6 Xposition Yposition Zposition Zrotation Yrotation Xrotation
  JOINT abdomen
  {
    OFFSET 0 20.6881 -0.73152
    CHANNELS 3 Zrotation Xrotation Yrotation
    JOINT chest
    {
      OFFSET 0 11.7043 -0.48768
      CHANNELS 3 Zrotation Xrotation Yrotation
      JOINT neck
      {
        OFFSET 0 22.1894 -2.19456
        CHANNELS 3 Zrotation Xrotation Yrotation
        JOINT head
        {
          OFFSET -0.24384 7.07133 1.2192
          CHANNELS 3 Zrotation Xrotation Yrotation
          JOINT leftEye
          {
            OFFSET 4.14528 8.04674 8.04672
            CHANNELS 3 Zrotation Xrotation Yrotation
            End Site
            {
              OFFSET 1 0 0
            }
          }
          JOINT rightEye
          {
            OFFSET -3.6576 8.04674 8.04672
            CHANNELS 3 Zrotation Xrotation Yrotation
            End Site
            {
              OFFSET 1 0 0
            }
          }
        }
      }
      JOINT rCollar
      {
        OFFSET -2.68224 19.2634 -4.8768
        CHANNELS 3 Zrotation Xrotation Yrotation
        JOINT rShldr
        {
          OFFSET -8.77824 -1.95073 1.46304
          CHANNELS 3 Zrotation Xrotation Yrotation
          JOINT rForeArm
          {
            OFFSET -28.1742 -1.7115 0.48768
            CHANNELS 3 Zrotation Xrotation Yrotation
            JOINT rHand
            {
              OFFSET -22.5879 0.773209 7.07136
              CHANNELS 3 Zrotation Xrotation Yrotation
              JOINT rThumb1
              {
                OFFSET -1.2192 -0.487915 3.41376
                CHANNELS 3 Zrotation Xrotation Yrotation
                JOINT rThumb2
                {
                  OFFSET -3.37035 -0.52449 3.41376
                  CHANNELS 3 Zrotation Xrotation Yrotation
                  End Site
                  {
                    OFFSET -1.78271 -1.18214 1.43049
                  }
                }
              }
              JOINT rIndex1
              {
                OFFSET -7.75947 0.938293 5.60832
                CHANNELS 3 Zrotation Xrotation Yrotation
                JOINT rIndex2
                {
                  OFFSET -2.54057 -0.884171 1.56538
                  CHANNELS 3 Zrotation Xrotation Yrotation
                  End Site
                  {
                    OFFSET -1.62519 -0.234802 1.16502
                  }
                }
              }
              JOINT rMid1
              {
                OFFSET -8.24714 1.18213 3.41376
                CHANNELS 3 Zrotation Xrotation Yrotation
                JOINT rMid2
                {
                  OFFSET -3.10165 -0.590103 1.0647
                  CHANNELS 3 Zrotation Xrotation Yrotation
                  End Site
                  {
                    OFFSET -2.48547 -0.328903 0.83742
                  }
                }
              }
              JOINT rRing1
              {
                OFFSET -8.82822 0.546677 1.51678
                CHANNELS 3 Zrotation Xrotation Yrotation
                JOINT rRing2
                {
                  OFFSET -2.60934 -0.819778 -0.0198488
                  CHANNELS 3 Zrotation Xrotation Yrotation
                  End Site
                  {
                    OFFSET -2.33842 -0.294052 0.168128
                  }
                }
              }
              JOINT rPinky1
              {
                OFFSET -8.27202 -0.0477905 -0.4584
                CHANNELS 3 Zrotation Xrotation Yrotation
                JOINT rPinky2
                {
                  OFFSET -1.82734 -0.647385 -0.700984
                  CHANNELS 3 Zrotation Xrotation Yrotation
                  End Site
                  {
                    OFFSET -1.69225 -0.51767 -0.607171
                  }
                }
              }
            }
          }
        }
      }
      JOINT lCollar
      {
        OFFSET 2.68224 19.2634 -4.8768
        CHANNELS 3 Zrotation Xrotation Yrotation
        JOINT lShldr
        {
          OFFSET 8.77824 -1.95073 1.46304
          CHANNELS 3 Zrotation Xrotation Yrotation
          JOINT lForeArm
          {
            OFFSET 28.1742 -1.7115 0.48768
            CHANNELS 3 Zrotation Xrotation Yrotation
            JOINT lHand
            {
              OFFSET 22.5879 0.773209 7.07136
              CHANNELS 3 Zrotation Xrotation Yrotation
              JOINT lThumb1
              {
                OFFSET 1.2192 -0.487915 3.41376
                CHANNELS 3 Zrotation Xrotation Yrotation
                JOINT lThumb2
                {
                  OFFSET 3.37035 -0.52449 3.41376
                  CHANNELS 3 Zrotation Xrotation Yrotation
                  End Site
                  {
                    OFFSET 1.78271 -1.18214 1.43049
                  }
                }
              }
              JOINT lIndex1
              {
                OFFSET 7.75947 0.938293 5.60832
                CHANNELS 3 Zrotation Xrotation Yrotation
                JOINT lIndex2
                {
                  OFFSET 2.54057 -0.884171 1.56538
                  CHANNELS 3 Zrotation Xrotation Yrotation
                  End Site
                  {
                    OFFSET 1.62519 -0.234802 1.16502
                  }
                }
              }
              JOINT lMid1
              {
                OFFSET 8.24714 1.18213 3.41376
                CHANNELS 3 Zrotation Xrotation Yrotation
                JOINT lMid2
                {
                  OFFSET 3.10165 -0.590103 1.0647
                  CHANNELS 3 Zrotation Xrotation Yrotation
                  End Site
                  {
                    OFFSET 2.48547 -0.328903 0.83742
                  }
                }
              }
              JOINT lRing1
              {
                OFFSET 8.82822 0.546677 1.51678
                CHANNELS 3 Zrotation Xrotation Yrotation
                JOINT lRing2
                {
                  OFFSET 2.60934 -0.819778 -0.0198488
                  CHANNELS 3 Zrotation Xrotation Yrotation
                  End Site
                  {
                    OFFSET 2.33842 -0.294052 0.168128
                  }
                }
              }
              JOINT lPinky1
              {
                OFFSET 8.27202 -0.0477905 -0.4584
                CHANNELS 3 Zrotation Xrotation Yrotation
                JOINT lPinky2
                {
                  OFFSET 1.82734 -0.647385 -0.700984
                  CHANNELS 3 Zrotation Xrotation Yrotation
                  End Site
                  {
                    OFFSET 1.69225 -0.51767 -0.607171
                  }
                }
              }
            }
          }
        }
      }
    }
  }
  JOINT rButtock
  {
    OFFSET -8.77824 4.35084 1.2192
    CHANNELS 3 Zrotation Xrotation Yrotation
    JOINT rThigh
    {
      OFFSET 0 -1.70687 -2.19456
      CHANNELS 3 Zrotation Xrotation Yrotation
      JOINT rShin
      {
        OFFSET 0 -36.8199 0.73152
        CHANNELS 3 Zrotation Xrotation Yrotation
        JOINT rFoot
        {
          OFFSET 0.73152 -45.1104 -5.12064
          CHANNELS 3 Zrotation Xrotation Yrotation
          End Site
          {
            OFFSET -1.1221 -3.69964 12.103
          }
        }
      }
    }
  }
  JOINT lButtock
  {
    OFFSET 8.77824 4.35084 1.2192
    CHANNELS 3 Zrotation Xrotation Yrotation
    JOINT lThigh
    {
      OFFSET 0 -1.70687 -2.19456
      CHANNELS 3 Zrotation Xrotation Yrotation
      JOINT lShin
      {
        OFFSET 0 -36.8199 0.73152
        CHANNELS 3 Zrotation Xrotation Yrotation
        JOINT lFoot
        {
          OFFSET -0.73152 -45.1104 -5.12064
          CHANNELS 3 Zrotation Xrotation Yrotation
          End Site
          {
            OFFSET 1.1221 -3.69964 12.103
          }
        }
      }
    }
  }
}
MOTION
Frames:	4
Frame Time:	0.00833333
-2.38815 82.1136 10.0962 5.2818 0.6186 7.7447 5.92583 10.7166 3.52199 3.19517 -3.35062 1.16873 -13.7364 -12.2133 -9.70782 13.3253 -16.686 -10.8924 -0.0 0.0 0.0 -0.0 0.0 0.0 -8.33452e-14 2.72498e-13 1.15311e-15 25.9644 5.54535 20.9598 -18.8581 -11.6404 35.9737 -2.62882 41.0342 7.02367 -1.79062e-09 1.66127e-08 -4.01833e-09 -3.22264e-09 2.8765e-08 -6.86631e-09 -1.79062e-09 1.66127e-08 -4.01833e-09 7.73091 5.47488 0.417314 -1.79062e-09 1.66127e-08 -4.01832e-09 2.90554 0.965183 0.102902 -1.79062e-09 1.66127e-08 -4.01833e-09 10.2786 0.731801 0.0259123 -1.79063e-09 1.66127e-08 -4.01832e-09 2.22167 -0.733487 -0.20892 -8.32961e-14 2.72496e-13 9.97418e-16 -72.1371 16.4355 9.51106 21.9138 -15.6282 -43.5577 0.0776421 7.92451 -1.12094 2.90287e-09 4.55521e-09 -4.01205e-10 5.01774e-09 7.87007e-09 -7.08882e-10 2.90287e-09 4.55522e-09 -4.01202e-10 -7.73091 5.47488 -0.417314 2.90287e-09 4.55522e-09 -4.01211e-10 -2.90554 0.965183 -0.102902 2.90286e-09 4.55522e-09 -4.01207e-10 -10.2786 0.731801 -0.0259123 2.90287e-09 4.55522e-09 -4.01206e-10 -2.22167 -0.733487 0.20892 -2.03217e-16 0.0 -3.88251e-19 -9.10203 -23.8437 -3.82016 -0.234697 32.7813 0.63506 -2.51303 -13.8029 -6.47495 2.03217e-16 0.0 3.88251e-19 5.92733 -13.8698 -5.44781 -0.0372758 20.5638 -0.445491 0.544689 -1.52605 8.64523
-2.30919 82.1155 10.0797 5.1074 0.9716 7.6924 5.98478 10.724 3.34038 3.2569 -3.34367 1.12007 -13.6935 -12.3049 -9.54666 13.2285 -16.6068 -10.5883 -0.0 0.0 0.0 -0.0 0.0 0.0 -8.88159e-14 2.67285e-13 -2.94822e-14 25.6734 4.4784 20.7552 -18.9684 -11.7677 36.229 -2.43887 39.8399 6.73133 -1.58869e-09 1.35842e-08 -3.20732e-09 -2.84467e-09 2.35228e-08 -5.47695e-09 -1.58869e-09 1.35842e-08 -3.20733e-09 7.73091 5.47488 0.417314 -1.58869e-09 1.35842e-08 -3.20731e-09 2.90554 0.965183 0.102902 -1.58869e-09 1.35842e-08 -3.20731e-09 10.2786 0.731801 0.0259123 -1.5887e-09 1.35842e-08 -3.20731e-09 2.22167 -0.733487 -0.20892 -8.88163e-14 2.67246e-13 -2.97214e-14 -72.2315 16.4687 9.55448 21.9236 -15.6428 -43.584 0.0765134 7.86749 -1.11277 2.40104e-09 3.97255e-09 -4.3829e-10 4.14868e-09 6.86271e-09 -7.70966e-10 2.40104e-09 3.97256e-09 -4.38284e-10 -7.73091 5.47488 -0.417314 2.40104e-09 3.97256e-09 -4.38294e-10 -2.90554 0.965183 -0.102902 2.40104e-09 3.97256e-09 -4.38292e-10 -10.2786 0.731801 -0.0259123 2.40105e-09 3.97256e-09 -4.38292e-10 -2.22167 -0.733487 0.20892 -2.03217e-16 0.0 -3.88251e-19 -9.10647 -23.7072 -4.00098 -0.233563 32.7355 0.635037 -2.57485 -13.8763 -6.62862 2.03217e-16 0.0 3.88251e-19 5.99227 -13.8203 -5.55167 -0.0352641 20.3666 -0.440889 0.53937 -1.58671 8.53452
-2.20351 82.1406 10.0949 4.9756 1.4159 7.5772 6.02252 10.7186 3.16963 3.317 -3.33505 1.07365 -13.6377 -12.3881 -9.3839 13.1312 -16.5248 -10.2898 -0.0 0.0 0.0 -0.0 0.0 0.0 -9.52211e-14 2.44528e-13 -5.67445e-14 25.3146 3.3066 20.5966 -19.0796 -11.8967 36.4886 -2.24924 38.5533 6.42952 -1.27254e-09 9.65764e-09 -2.19844e-09 -2.26341e-09 1.67251e-08 -3.74993e-09 -1.27254e-09 9.65764e-09 -2.19845e-09 7.73091 5.47488 0.417314 -1.27254e-09 9.65765e-09 -2.19844e-09 2.90554 0.965183 0.102902 -1.27253e-09 9.65764e-09 -2.19844e-09 10.2786 0.731801 0.0259123 -1.27254e-09 9.65764e-09 -2.19843e-09 2.22167 -0.733487 -0.20892 -9.52841e-14 2.44457e-13 -5.70594e-14 -72.3171 16.5026 9.58563 21.9293 -15.6514 -43.5992 0.0752317 7.80176 -1.10336 1.75372e-09 3.131e-09 -4.26158e-10 3.0283e-09 5.40819e-09 -7.47198e-10 1.75372e-09 3.13101e-09 -4.26148e-10 -7.73091 5.47488 -0.417314 1.75372e-09 3.131e-09 -4.2616e-10 -2.90554 0.965183 -0.102902 1.75372e-09 3.131e-09 -4.26161e-10 -10.2786 0.731801 -0.0259123 1.75372e-09 3.131e-09 -4.26163e-10 -2.22167 -0.733487 0.20892 -2.03217e-16 0.0 -3.88251e-19 -9.11995 -23.5712 -4.19503 -0.232437 32.6931 0.634879 -2.62997 -13.9535 -6.76099 2.03217e-16 0.0 3.88251e-19 6.05002 -13.7755 -5.64677 -0.0332163 20.1798 -0.436271 0.532906 -1.63493 8.43224
-2.08772 82.1601 10.077 4.9461 1.6022 7.6512 6.02395 10.6812 3.05046 3.35689 -3.32508 1.04006 -13.5368 -12.438 -9.21428 13.0266 -16.4809 -10.005 -0.0 0.0 0.0 -0.0 0.0 0.0 -1.04509e-13 2.00415e-13 -6.38099e-14 24.909 2.05828 20.4803 -19.1804 -12.0145 36.7254 -2.08129 37.3382 6.1546 -8.98895e-10 6.11392e-09 -1.36181e-09 -1.59049e-09 1.05918e-08 -2.32027e-09 -8.98895e-10 6.11392e-09 -1.36183e-09 7.73091 5.47488 0.417314 -8.98894e-10 6.11394e-09 -1.36182e-09 2.90554 0.965183 0.102902 -8.98889e-10 6.11392e-09 -1.36181e-09 10.2786 0.731801 0.0259123 -8.98896e-10 6.11392e-09 -1.36181e-09 2.22167 -0.733487 -0.20892 -1.04618e-13 2.00334e-13 -6.41578e-14 -72.3755 16.5533 9.62978 21.9405 -15.6683 -43.6291 0.0743483 7.7558 -1.09678 1.22749e-09 2.30273e-09 -2.93642e-10 2.11857e-09 3.97745e-09 -5.15739e-10 1.22749e-09 2.30274e-09 -2.93629e-10 -7.73091 5.47488 -0.417314 1.22749e-09 2.30274e-09 -2.93642e-10 -2.90554 0.965183 -0.102902 1.22749e-09 2.30274e-09 -2.93644e-10 -10.2786 0.731801 -0.0259123 1.2275e-09 2.30273e-09 -2.93648e-10 -2.22167 -0.733487 0.20892 -2.03217e-16 0.0 -3.88251e-19 -9.12904 -23.4753 -4.3597 -0.231554 32.6527 0.634655 -2.67584 -14.0202 -6.86942 2.03217e-16 0.0 3.88251e-19 6.10013 -13.7549 -5.70912 -0.0313782 20.0144 -0.432388 0.53307 -1.72136 8.3334
